<svg xmlns="http://www.w3.org/2000/svg" viewBox="0 0 1200 675">
  <defs>
    <linearGradient id="bg" x1="0%" y1="0%" x2="100%" y2="100%">
      <stop offset="0%" style="stop-color:#08061a"/>
      <stop offset="40%" style="stop-color:#0f0a22"/>
      <stop offset="100%" style="stop-color:#0a0f20"/>
    </linearGradient>
    <radialGradient id="glow1" cx="20%" cy="80%" r="45%">
      <stop offset="0%" style="stop-color:#512BD4;stop-opacity:0.25"/>
      <stop offset="100%" style="stop-color:#512BD4;stop-opacity:0"/>
    </radialGradient>
    <radialGradient id="glow2" cx="80%" cy="20%" r="40%">
      <stop offset="0%" style="stop-color:#4479A1;stop-opacity:0.18"/>
      <stop offset="100%" style="stop-color:#4479A1;stop-opacity:0"/>
    </radialGradient>
    <radialGradient id="glow3" cx="50%" cy="55%" r="30%">
      <stop offset="0%" style="stop-color:#6D3FA0;stop-opacity:0.12"/>
      <stop offset="100%" style="stop-color:#6D3FA0;stop-opacity:0"/>
    </radialGradient>
    <pattern id="grid" width="60" height="60" patternUnits="userSpaceOnUse">
      <path d="M 60 0 L 0 0 0 60" fill="none" stroke="#ffffff" stroke-width="0.5" opacity="0.04"/>
    </pattern>
    <linearGradient id="accent" x1="0%" y1="0%" x2="100%" y2="0%">
      <stop offset="0%" style="stop-color:#512BD4"/>
      <stop offset="50%" style="stop-color:#6D3FA0"/>
      <stop offset="100%" style="stop-color:#4479A1"/>
    </linearGradient>
    <filter id="shadow">
      <feDropShadow dx="0" dy="4" stdDeviation="8" flood-color="#000" flood-opacity="0.4"/>
    </filter>
  </defs>
  <rect width="1200" height="675" fill="url(#bg)"/>
  <rect width="1200" height="675" fill="url(#glow1)"/>
  <rect width="1200" height="675" fill="url(#glow2)"/>
  <rect width="1200" height="675" fill="url(#glow3)"/>
  <rect width="1200" height="675" fill="url(#grid)"/>
  <circle cx="105" cy="115" r="3" fill="#512BD4" opacity="0.6"/>
  <circle cx="1095" cy="95" r="2" fill="#4479A1" opacity="0.5"/>
  <circle cx="185" cy="575" r="4" fill="#6D3FA0" opacity="0.4"/>
  <circle cx="1010" cy="555" r="3" fill="#512BD4" opacity="0.3"/>
  <rect x="60" y="265" width="40" height="40" rx="8" fill="none" stroke="#512BD4" stroke-width="1" opacity="0.15" transform="rotate(22 80 285)"/>
  <rect x="1080" y="445" width="50" height="50" rx="10" fill="none" stroke="#4479A1" stroke-width="1" opacity="0.12" transform="rotate(-18 1105 470)"/>
  <polygon points="1048,118 1068,158 1028,158" fill="none" stroke="#6D3FA0" stroke-width="1" opacity="0.12"/>
  <rect x="380" y="148" width="440" height="3" rx="1.5" fill="url(#accent)" opacity="0.6"/>
  <g filter="url(#shadow)">
    <g transform="translate(290, 185)">
      <rect x="0" y="0" width="140" height="130" rx="22" fill="#120e28"/>
      <rect x="0" y="0" width="140" height="130" rx="22" fill="none" stroke="#512BD4" stroke-width="2" opacity="0.6"/>
      <text x="70" y="80" font-family="Arial, sans-serif" font-size="42" font-weight="bold" fill="#7c5ce7" text-anchor="middle">.NET</text>
    </g>
    <g transform="translate(470, 185)">
      <rect x="0" y="0" width="140" height="130" rx="22" fill="#18102a"/>
      <rect x="0" y="0" width="140" height="130" rx="22" fill="none" stroke="#6D3FA0" stroke-width="2" opacity="0.6"/>
      <text x="70" y="62" font-family="Arial, sans-serif" font-size="22" font-weight="bold" fill="#9B6DD7" text-anchor="middle">Entity</text>
      <text x="70" y="98" font-family="Arial, sans-serif" font-size="17" fill="#c4a0e8" text-anchor="middle">Framework</text>
    </g>
    <g transform="translate(650, 185)">
      <rect x="0" y="0" width="140" height="130" rx="22" fill="#0e1828"/>
      <rect x="0" y="0" width="140" height="130" rx="22" fill="none" stroke="#4479A1" stroke-width="2" opacity="0.6"/>
      <text x="70" y="62" font-family="Arial, sans-serif" font-size="22" font-weight="bold" fill="#4479A1" text-anchor="middle">My</text>
      <text x="70" y="98" font-family="Arial, sans-serif" font-size="36" font-weight="bold" fill="#78b0d4" text-anchor="middle">SQL</text>
    </g>
  </g>
  <text x="600" y="418" font-family="Arial, sans-serif" font-size="38" font-weight="bold" fill="#ffffff" text-anchor="middle">.NET + Entity Framework + MySQL</text>
  <text x="600" y="460" font-family="Arial, sans-serif" font-size="22" fill="#7a8ba8" text-anchor="middle">API Services for Service &amp; Appointment Management</text>
  <g transform="translate(280, 495)">
    <rect x="0" y="0" width="85" height="36" rx="18" fill="#512BD4" opacity="0.12" stroke="#512BD4" stroke-width="1" stroke-opacity="0.3"/>
    <text x="42" y="23" font-family="Arial, sans-serif" font-size="13" fill="#7c5ce7" text-anchor="middle">.NET 8</text>
  </g>
  <g transform="translate(385, 495)">
    <rect x="0" y="0" width="60" height="36" rx="18" fill="#68217A" opacity="0.12" stroke="#68217A" stroke-width="1" stroke-opacity="0.3"/>
    <text x="30" y="23" font-family="Arial, sans-serif" font-size="13" fill="#b44dca" text-anchor="middle">C#</text>
  </g>
  <g transform="translate(465, 495)">
    <rect x="0" y="0" width="55" height="36" rx="18" fill="#6D3FA0" opacity="0.12" stroke="#6D3FA0" stroke-width="1" stroke-opacity="0.3"/>
    <text x="27" y="23" font-family="Arial, sans-serif" font-size="13" fill="#9B6DD7" text-anchor="middle">EF</text>
  </g>
  <g transform="translate(540, 495)">
    <rect x="0" y="0" width="85" height="36" rx="18" fill="#4479A1" opacity="0.12" stroke="#4479A1" stroke-width="1" stroke-opacity="0.3"/>
    <text x="42" y="23" font-family="Arial, sans-serif" font-size="13" fill="#4479A1" text-anchor="middle">MySQL</text>
  </g>
  <g transform="translate(645, 495)">
    <rect x="0" y="0" width="70" height="36" rx="18" fill="#E8590C" opacity="0.1" stroke="#E8590C" stroke-width="1" stroke-opacity="0.25"/>
    <text x="35" y="23" font-family="Arial, sans-serif" font-size="13" fill="#E8590C" text-anchor="middle">JWT</text>
  </g>
  <rect x="200" y="565" width="800" height="1" fill="url(#accent)" opacity="0.15"/>
</svg>
