<svg xmlns="http://www.w3.org/2000/svg" viewBox="0 0 1200 675">
  <defs>
    <linearGradient id="bg" x1="0%" y1="0%" x2="100%" y2="100%">
      <stop offset="0%" style="stop-color:#080d0a"/>
      <stop offset="40%" style="stop-color:#0d1a14"/>
      <stop offset="100%" style="stop-color:#0a1218"/>
    </linearGradient>
    <radialGradient id="glow1" cx="22%" cy="78%" r="45%">
      <stop offset="0%" style="stop-color:#43B02A;stop-opacity:0.22"/>
      <stop offset="100%" style="stop-color:#43B02A;stop-opacity:0"/>
    </radialGradient>
    <radialGradient id="glow2" cx="78%" cy="22%" r="40%">
      <stop offset="0%" style="stop-color:#68217A;stop-opacity:0.2"/>
      <stop offset="100%" style="stop-color:#68217A;stop-opacity:0"/>
    </radialGradient>
    <radialGradient id="glow3" cx="55%" cy="55%" r="30%">
      <stop offset="0%" style="stop-color:#FF6B35;stop-opacity:0.1"/>
      <stop offset="100%" style="stop-color:#FF6B35;stop-opacity:0"/>
    </radialGradient>
    <pattern id="grid" width="60" height="60" patternUnits="userSpaceOnUse">
      <path d="M 60 0 L 0 0 0 60" fill="none" stroke="#ffffff" stroke-width="0.5" opacity="0.04"/>
    </pattern>
    <linearGradient id="accent" x1="0%" y1="0%" x2="100%" y2="0%">
      <stop offset="0%" style="stop-color:#43B02A"/>
      <stop offset="50%" style="stop-color:#68217A"/>
      <stop offset="100%" style="stop-color:#FF6B35"/>
    </linearGradient>
    <filter id="shadow">
      <feDropShadow dx="0" dy="4" stdDeviation="8" flood-color="#000" flood-opacity="0.4"/>
    </filter>
  </defs>
  <rect width="1200" height="675" fill="url(#bg)"/>
  <rect width="1200" height="675" fill="url(#glow1)"/>
  <rect width="1200" height="675" fill="url(#glow2)"/>
  <rect width="1200" height="675" fill="url(#glow3)"/>
  <rect width="1200" height="675" fill="url(#grid)"/>
  <circle cx="110" cy="140" r="3" fill="#43B02A" opacity="0.6"/>
  <circle cx="1090" cy="95" r="2" fill="#68217A" opacity="0.5"/>
  <circle cx="190" cy="570" r="4" fill="#FF6B35" opacity="0.4"/>
  <circle cx="980" cy="560" r="3" fill="#43B02A" opacity="0.3"/>
  <rect x="55" y="260" width="40" height="40" rx="8" fill="none" stroke="#43B02A" stroke-width="1" opacity="0.15" transform="rotate(18 75 280)"/>
  <rect x="1085" y="440" width="50" height="50" rx="10" fill="none" stroke="#68217A" stroke-width="1" opacity="0.12" transform="rotate(-22 1110 465)"/>
  <polygon points="1050,110 1070,150 1030,150" fill="none" stroke="#FF6B35" stroke-width="1" opacity="0.12"/>
  <rect x="400" y="148" width="400" height="3" rx="1.5" fill="url(#accent)" opacity="0.6"/>
  <g filter="url(#shadow)">
    <g transform="translate(290, 185)">
      <rect x="0" y="0" width="140" height="130" rx="22" fill="#122010"/>
      <rect x="0" y="0" width="140" height="130" rx="22" fill="none" stroke="#43B02A" stroke-width="2" opacity="0.6"/>
      <text x="70" y="84" font-family="Arial, sans-serif" font-size="42" font-weight="bold" fill="#43B02A" text-anchor="middle">Se</text>
    </g>
    <g transform="translate(470, 185)">
      <rect x="0" y="0" width="140" height="130" rx="22" fill="#1e1230"/>
      <rect x="0" y="0" width="140" height="130" rx="22" fill="none" stroke="#68217A" stroke-width="2" opacity="0.6"/>
      <text x="70" y="86" font-family="Arial, sans-serif" font-size="58" font-weight="bold" fill="#b44dca" text-anchor="middle">C#</text>
    </g>
    <g transform="translate(650, 185)">
      <rect x="0" y="0" width="140" height="130" rx="22" fill="#201510"/>
      <rect x="0" y="0" width="140" height="130" rx="22" fill="none" stroke="#FF6B35" stroke-width="2" opacity="0.6"/>
      <text x="70" y="62" font-family="Arial, sans-serif" font-size="26" font-weight="bold" fill="#FF6B35" text-anchor="middle">Reqn</text>
      <text x="70" y="98" font-family="Arial, sans-serif" font-size="32" font-weight="bold" fill="#ffb088" text-anchor="middle">Roll</text>
    </g>
  </g>
  <text x="600" y="415" font-family="Arial, sans-serif" font-size="40" font-weight="bold" fill="#ffffff" text-anchor="middle">Selenium + C# + Reqnroll</text>
  <text x="600" y="458" font-family="Arial, sans-serif" font-size="22" fill="#7a8ba8" text-anchor="middle">End to End UI Automation Test Suite</text>
  <g transform="translate(320, 492)">
    <rect x="0" y="0" width="105" height="36" rx="18" fill="#43B02A" opacity="0.12" stroke="#43B02A" stroke-width="1" stroke-opacity="0.3"/>
    <text x="52" y="23" font-family="Arial, sans-serif" font-size="13" fill="#43B02A" text-anchor="middle">Selenium</text>
  </g>
  <g transform="translate(445, 492)">
    <rect x="0" y="0" width="60" height="36" rx="18" fill="#68217A" opacity="0.15" stroke="#68217A" stroke-width="1" stroke-opacity="0.3"/>
    <text x="30" y="23" font-family="Arial, sans-serif" font-size="13" fill="#b44dca" text-anchor="middle">C#</text>
  </g>
  <g transform="translate(525, 492)">
    <rect x="0" y="0" width="100" height="36" rx="18" fill="#FF6B35" opacity="0.12" stroke="#FF6B35" stroke-width="1" stroke-opacity="0.3"/>
    <text x="50" y="23" font-family="Arial, sans-serif" font-size="13" fill="#FF6B35" text-anchor="middle">Reqnroll</text>
  </g>
  <g transform="translate(645, 492)">
    <rect x="0" y="0" width="80" height="36" rx="18" fill="#23D96C" opacity="0.1" stroke="#23D96C" stroke-width="1" stroke-opacity="0.25"/>
    <text x="40" y="23" font-family="Arial, sans-serif" font-size="13" fill="#23D96C" text-anchor="middle">BDD</text>
  </g>
  <rect x="200" y="562" width="800" height="1" fill="url(#accent)" opacity="0.15"/>
</svg>
