<svg xmlns="http://www.w3.org/2000/svg" viewBox="0 0 1200 675">
  <defs>
    <linearGradient id="bg" x1="0%" y1="0%" x2="100%" y2="100%">
      <stop offset="0%" style="stop-color:#0a0812"/>
      <stop offset="40%" style="stop-color:#120d20"/>
      <stop offset="100%" style="stop-color:#0e0818"/>
    </linearGradient>
    <radialGradient id="glow1" cx="20%" cy="75%" r="45%">
      <stop offset="0%" style="stop-color:#5C2D91;stop-opacity:0.25"/>
      <stop offset="100%" style="stop-color:#5C2D91;stop-opacity:0"/>
    </radialGradient>
    <radialGradient id="glow2" cx="80%" cy="25%" r="40%">
      <stop offset="0%" style="stop-color:#FF6B35;stop-opacity:0.18"/>
      <stop offset="100%" style="stop-color:#FF6B35;stop-opacity:0"/>
    </radialGradient>
    <radialGradient id="glow3" cx="50%" cy="60%" r="30%">
      <stop offset="0%" style="stop-color:#68217A;stop-opacity:0.12"/>
      <stop offset="100%" style="stop-color:#68217A;stop-opacity:0"/>
    </radialGradient>
    <pattern id="grid" width="60" height="60" patternUnits="userSpaceOnUse">
      <path d="M 60 0 L 0 0 0 60" fill="none" stroke="#ffffff" stroke-width="0.5" opacity="0.04"/>
    </pattern>
    <linearGradient id="accent" x1="0%" y1="0%" x2="100%" y2="0%">
      <stop offset="0%" style="stop-color:#5C2D91"/>
      <stop offset="50%" style="stop-color:#68217A"/>
      <stop offset="100%" style="stop-color:#FF6B35"/>
    </linearGradient>
    <filter id="shadow">
      <feDropShadow dx="0" dy="4" stdDeviation="8" flood-color="#000" flood-opacity="0.4"/>
    </filter>
  </defs>
  <rect width="1200" height="675" fill="url(#bg)"/>
  <rect width="1200" height="675" fill="url(#glow1)"/>
  <rect width="1200" height="675" fill="url(#glow2)"/>
  <rect width="1200" height="675" fill="url(#glow3)"/>
  <rect width="1200" height="675" fill="url(#grid)"/>
  <circle cx="100" cy="130" r="3" fill="#5C2D91" opacity="0.6"/>
  <circle cx="1100" cy="100" r="2" fill="#FF6B35" opacity="0.5"/>
  <circle cx="170" cy="560" r="4" fill="#68217A" opacity="0.4"/>
  <circle cx="1020" cy="540" r="3" fill="#5C2D91" opacity="0.3"/>
  <rect x="60" y="270" width="40" height="40" rx="8" fill="none" stroke="#5C2D91" stroke-width="1" opacity="0.15" transform="rotate(25 80 290)"/>
  <rect x="1080" y="420" width="50" height="50" rx="10" fill="none" stroke="#FF6B35" stroke-width="1" opacity="0.12" transform="rotate(-20 1105 445)"/>
  <polygon points="1040,130 1060,170 1020,170" fill="none" stroke="#68217A" stroke-width="1" opacity="0.12"/>
  <rect x="400" y="148" width="400" height="3" rx="1.5" fill="url(#accent)" opacity="0.6"/>
  <g filter="url(#shadow)">
    <g transform="translate(290, 185)">
      <rect x="0" y="0" width="140" height="130" rx="22" fill="#1a122a"/>
      <rect x="0" y="0" width="140" height="130" rx="22" fill="none" stroke="#5C2D91" stroke-width="2" opacity="0.6"/>
      <text x="70" y="60" font-family="Arial, sans-serif" font-size="30" font-weight="bold" fill="#9B6DD7" text-anchor="middle">Rest</text>
      <text x="70" y="100" font-family="Arial, sans-serif" font-size="34" font-weight="bold" fill="#c9a0ff" text-anchor="middle">Sharp</text>
    </g>
    <g transform="translate(470, 185)">
      <rect x="0" y="0" width="140" height="130" rx="22" fill="#1e1230"/>
      <rect x="0" y="0" width="140" height="130" rx="22" fill="none" stroke="#68217A" stroke-width="2" opacity="0.6"/>
      <text x="70" y="86" font-family="Arial, sans-serif" font-size="58" font-weight="bold" fill="#b44dca" text-anchor="middle">C#</text>
    </g>
    <g transform="translate(650, 185)">
      <rect x="0" y="0" width="140" height="130" rx="22" fill="#201510"/>
      <rect x="0" y="0" width="140" height="130" rx="22" fill="none" stroke="#FF6B35" stroke-width="2" opacity="0.6"/>
      <text x="70" y="62" font-family="Arial, sans-serif" font-size="26" font-weight="bold" fill="#FF6B35" text-anchor="middle">Reqn</text>
      <text x="70" y="98" font-family="Arial, sans-serif" font-size="32" font-weight="bold" fill="#ffb088" text-anchor="middle">Roll</text>
    </g>
  </g>
  <text x="600" y="415" font-family="Arial, sans-serif" font-size="40" font-weight="bold" fill="#ffffff" text-anchor="middle">RestSharp + C# + Reqnroll</text>
  <text x="600" y="458" font-family="Arial, sans-serif" font-size="22" fill="#7a8ba8" text-anchor="middle">API Integration Automation Test Suite</text>
  <g transform="translate(310, 492)">
    <rect x="0" y="0" width="105" height="36" rx="18" fill="#5C2D91" opacity="0.15" stroke="#5C2D91" stroke-width="1" stroke-opacity="0.3"/>
    <text x="52" y="23" font-family="Arial, sans-serif" font-size="13" fill="#9B6DD7" text-anchor="middle">RestSharp</text>
  </g>
  <g transform="translate(435, 492)">
    <rect x="0" y="0" width="60" height="36" rx="18" fill="#68217A" opacity="0.15" stroke="#68217A" stroke-width="1" stroke-opacity="0.3"/>
    <text x="30" y="23" font-family="Arial, sans-serif" font-size="13" fill="#b44dca" text-anchor="middle">C#</text>
  </g>
  <g transform="translate(515, 492)">
    <rect x="0" y="0" width="100" height="36" rx="18" fill="#FF6B35" opacity="0.12" stroke="#FF6B35" stroke-width="1" stroke-opacity="0.3"/>
    <text x="50" y="23" font-family="Arial, sans-serif" font-size="13" fill="#FF6B35" text-anchor="middle">Reqnroll</text>
  </g>
  <g transform="translate(635, 492)">
    <rect x="0" y="0" width="80" height="36" rx="18" fill="#23D96C" opacity="0.1" stroke="#23D96C" stroke-width="1" stroke-opacity="0.25"/>
    <text x="40" y="23" font-family="Arial, sans-serif" font-size="13" fill="#23D96C" text-anchor="middle">BDD</text>
  </g>
  <g transform="translate(735, 492)">
    <rect x="0" y="0" width="70" height="36" rx="18" fill="#4479A1" opacity="0.1" stroke="#4479A1" stroke-width="1" stroke-opacity="0.25"/>
    <text x="35" y="23" font-family="Arial, sans-serif" font-size="13" fill="#4479A1" text-anchor="middle">API</text>
  </g>
  <rect x="200" y="562" width="800" height="1" fill="url(#accent)" opacity="0.15"/>
</svg>
